<svg width="85" height="40" viewBox="0 0 85 40" fill="none" xmlns="http://www.w3.org/2000/svg">
<g clip-path="url(#clip0_52_808)">
<path d="M11.3631 17.126V22.8459C8.22598 22.8459 5.68157 25.4075 5.68157 28.5658C5.68157 31.7241 8.22598 34.2857 11.3631 34.2857V40.0056C5.08881 40 0 34.8825 0 28.5658C0 22.2491 5.08881 17.126 11.3631 17.126Z" fill="#4269B1"/>
<path d="M19.8631 0V5.71992C23.0003 5.71992 25.5447 8.28149 25.5447 11.4398C25.5447 14.5982 23.0003 17.1597 19.8631 17.1597V22.8797C26.1375 22.8797 31.2263 17.7565 31.2263 11.4398C31.2263 5.12315 26.1375 0 19.8631 0Z" fill="#61BCEB"/>
<path d="M11.3631 0V5.71992C7.15789 5.71992 3.48948 3.41731 1.52106 0H11.3631Z" fill="#61BCEB"/>
<path d="M19.8743 34.2744V39.9944C24.0796 39.9944 27.748 37.6918 29.7108 34.2744H19.8743Z" fill="#4269B1"/>
<path d="M18.4539 0H12.778V39.9831H18.4539V0Z" fill="#61BCEB"/>
<path d="M18.4539 0H15.6187V39.9831H18.4539V0Z" fill="#4269B1"/>
<path d="M40.1233 6.67136L39.6983 7.17805C39.3012 6.86278 38.9322 6.7164 38.4792 6.7164C37.5062 6.7164 36.7065 7.38072 36.7065 9.29487C36.7065 11.209 37.4782 11.8508 38.4736 11.8508C39.0664 11.8508 39.4466 11.6031 39.8045 11.3329L40.1904 11.8339C39.8381 12.1886 39.2621 12.5208 38.4401 12.5208C36.9526 12.5208 35.8733 11.3835 35.8733 9.28924C35.8733 7.19494 37.0253 6.05771 38.4345 6.05771C39.2006 6.05771 39.6312 6.27727 40.1177 6.66573L40.1233 6.67136Z" fill="#1D1D1B"/>
<path d="M44.1496 10.8149H41.7338L41.2473 12.4138H40.4532L42.4608 6.17032H43.4506L45.4526 12.4138H44.6249L44.144 10.8149H44.1496ZM43.9539 10.1731L42.9473 6.82338L41.9295 10.1731H43.9539Z" fill="#1D1D1B"/>
<path d="M48.2542 9.72838H47.2253V12.4138H46.4536V6.17032H48.0473C49.5795 6.17032 50.3736 6.76708 50.3736 7.9212C50.3736 8.81071 49.9039 9.32866 49.0203 9.58763L50.698 12.4082H49.7697L48.2542 9.72275V9.72838ZM48.1368 9.12035C49.0259 9.12035 49.5404 8.78256 49.5404 7.9212C49.5404 7.13302 49.0874 6.7896 48.0361 6.7896H47.2253V9.12035H48.1368Z" fill="#1D1D1B"/>
<path d="M55.9769 10.6404C55.9769 11.9353 54.9927 12.4082 53.5723 12.4082H51.8667V6.17032H53.3095C54.8137 6.17032 55.6973 6.66011 55.6973 7.74104C55.6973 8.51796 55.1549 8.98524 54.5453 9.10909C55.2723 9.22732 55.9769 9.582 55.9769 10.6404ZM52.644 6.79523V8.83323H53.6506C54.3608 8.83323 54.892 8.47292 54.892 7.79171C54.892 7.01479 54.3328 6.79523 53.3878 6.79523H52.6384H52.644ZM55.1493 10.6404C55.1493 9.7509 54.5006 9.44125 53.7345 9.44125H52.644V11.772H53.5723C54.5006 11.772 55.1493 11.5524 55.1493 10.6404Z" fill="#1D1D1B"/>
<path d="M60.5401 6.80649H58.0963V8.91205H60.2157V9.54822H58.0963V11.7776H60.691V12.4138H57.319V6.17032H60.6239L60.5345 6.80649H60.5401Z" fill="#1D1D1B"/>
<path d="M62.872 11.7213H65.4331L65.3437 12.4082H62.1003V6.17032H62.872V11.7213Z" fill="#1D1D1B"/>
<path d="M67.3121 11.7213H69.8733L69.7838 12.4082H66.5404V6.17032H67.3177V11.7213H67.3121Z" fill="#1D1D1B"/>
<path d="M71.7522 12.4138H70.9805V6.17032H71.7522V12.4138Z" fill="#1D1D1B"/>
<path d="M77.9427 9.25547C77.9427 11.8114 76.3769 12.4138 75.0516 12.4138H73.6088V6.17032H74.8894C76.4384 6.17032 77.9427 6.66574 77.9427 9.25547ZM74.3805 6.80649V11.7889H75.1131C76.1029 11.7889 77.1039 11.3554 77.1039 9.2611C77.1039 7.1668 76.0581 6.81212 75.0516 6.81212H74.3861L74.3805 6.80649Z" fill="#1D1D1B"/>
<path d="M84.1667 9.3005C84.1667 11.361 83.1209 12.5208 81.5719 12.5208C80.0229 12.5208 78.9772 11.3948 78.9772 9.30613C78.9772 7.21746 80.0397 6.05771 81.5719 6.05771C83.1042 6.05771 84.1667 7.18931 84.1667 9.29487V9.3005ZM79.8048 9.31176C79.8048 11.1246 80.5262 11.8677 81.5719 11.8677C82.6177 11.8677 83.339 11.1246 83.339 9.3005C83.339 7.47643 82.6624 6.7164 81.5719 6.7164C80.4815 6.7164 79.8048 7.47643 79.8048 9.31176Z" fill="#1D1D1B"/>
<path d="M40.2463 18.9669C40.2463 20.3913 39.2286 20.9711 37.8697 20.9711H37.0588V23.2906H36.2815V17.0471H37.8697C39.346 17.0471 40.2463 17.6552 40.2463 18.9613V18.9669ZM39.4187 18.9782C39.4187 18.0155 38.8147 17.6721 37.8585 17.6721H37.0588V20.3462H37.8417C38.7868 20.3462 39.4187 20.0535 39.4187 18.9782Z" fill="#1D1D1B"/>
<path d="M44.7088 17.689H42.2651V19.7945H44.3845V20.4307H42.2651V22.6601H44.8598V23.2963H41.4878V17.0528H44.7927L44.7032 17.689H44.7088ZM44.2335 15.7298L42.321 16.4391L42.1197 16.0338L43.8924 15.0823L44.2279 15.7354L44.2335 15.7298Z" fill="#1D1D1B"/>
<path d="M48.0641 20.6109H47.0351V23.2963H46.2578V17.0528H47.8516C49.3838 17.0528 50.1779 17.6496 50.1779 18.8037C50.1779 19.6932 49.7081 20.2111 48.8246 20.4701L50.5022 23.2907H49.5739L48.0585 20.6052L48.0641 20.6109ZM47.9466 20.0028C48.8414 20.0028 49.3502 19.665 49.3502 18.8037C49.3502 18.0155 48.9029 17.6721 47.846 17.6721H47.0351V20.0028H47.9466Z" fill="#1D1D1B"/>
<path d="M54.892 17.689H52.4483V19.7945H54.5677V20.4307H52.4483V22.6601H55.043V23.2963H51.671V17.0528H54.9759L54.8864 17.689H54.892Z" fill="#1D1D1B"/>
<path d="M59.7124 17.689L56.5864 22.6263H59.6956L59.6062 23.2963H55.7141V22.6601L58.868 17.7171H56.0496V17.0528H59.718V17.689H59.7124Z" fill="#1D1D1B"/>
<path d="M66.8703 18.3139C66.8703 19.0852 66.2943 19.5581 65.5729 19.9803L67.2226 21.5398C67.4407 21.0837 67.6364 20.5714 67.7706 19.9634L68.4808 20.1661C68.2571 20.9205 67.9831 21.506 67.6868 21.9902L68.7213 22.9585L68.1733 23.4032L67.2618 22.525C66.7696 23.088 66.1433 23.4032 65.271 23.4032C64.1078 23.4032 63.2802 22.7389 63.2802 21.7143C63.2802 20.9149 63.7779 20.3969 64.5496 19.9071C64.0016 19.3779 63.6549 18.9726 63.6549 18.3476C63.6549 17.5595 64.2308 16.9402 65.2486 16.9402C66.2048 16.9402 66.8591 17.5201 66.8591 18.3082L66.8703 18.3139ZM64.0575 21.6861C64.0575 22.373 64.5999 22.7896 65.3548 22.7896C65.97 22.7896 66.4173 22.5362 66.8256 22.0915L64.9858 20.3237C64.365 20.7234 64.0575 21.1344 64.0575 21.6861ZM64.4098 18.3364C64.4098 18.798 64.6614 19.1077 65.1368 19.5581C65.7519 19.1978 66.121 18.8431 66.121 18.3533C66.121 17.8184 65.7798 17.5088 65.2654 17.5088C64.7173 17.5088 64.4098 17.8635 64.4098 18.3364Z" fill="#1D1D1B"/>
<path d="M39.1223 32.5799H36.7065L36.22 34.1788H35.4259L37.4335 27.9353H38.4233L40.4253 34.1788H39.5976L39.1223 32.5799ZM38.921 31.9381L37.9144 28.5883L36.8967 31.9381H38.921Z" fill="#1D1D1B"/>
<path d="M44.8039 28.5433L44.3789 29.0275C43.9091 28.6446 43.4785 28.4814 42.9529 28.4814C42.293 28.4814 41.8009 28.7966 41.8009 29.4046C41.8009 29.9564 42.0637 30.221 43.1822 30.5644C44.1999 30.874 44.9996 31.2738 44.9996 32.4448C44.9996 33.5313 44.1887 34.2857 42.8299 34.2857C41.9463 34.2857 41.2641 33.9873 40.7496 33.4863L41.1802 32.9965C41.6499 33.3849 42.1364 33.6327 42.8187 33.6327C43.5736 33.6327 44.1887 33.2442 44.1887 32.4729C44.1887 31.8311 43.8812 31.5496 42.8187 31.2231C41.5996 30.8515 40.9957 30.3899 40.9957 29.4384C40.9957 28.487 41.7897 27.8339 42.9137 27.8339C43.7637 27.8339 44.295 28.0873 44.7983 28.5489L44.8039 28.5433Z" fill="#1D1D1B"/>
<path d="M51.1118 31.0655C51.1118 33.126 50.066 34.2857 48.517 34.2857C46.968 34.2857 45.9223 33.1597 45.9223 31.0711C45.9223 28.9824 46.9848 27.8227 48.517 27.8227C50.0493 27.8227 51.1118 28.9543 51.1118 31.0598V31.0655ZM46.7499 31.0767C46.7499 32.8895 47.4713 33.6327 48.517 33.6327C49.5628 33.6327 50.2841 32.8895 50.2841 31.0655C50.2841 29.2414 49.6075 28.4814 48.517 28.4814C47.4266 28.4814 46.7499 29.2414 46.7499 31.0767Z" fill="#1D1D1B"/>
<path d="M56.3963 28.4307L55.9713 28.9374C55.5743 28.6221 55.2052 28.4757 54.7522 28.4757C53.7792 28.4757 52.9795 29.1401 52.9795 31.0542C52.9795 32.9683 53.7568 33.6102 54.7466 33.6102C55.3394 33.6102 55.7197 33.3624 56.0775 33.0922L56.4634 33.5933C56.1111 33.9479 55.5351 34.2801 54.7131 34.2801C53.2256 34.2801 52.1463 33.1429 52.1463 31.0486C52.1463 28.9543 53.2983 27.817 54.7075 27.817C55.4736 27.817 55.9042 28.0366 56.3907 28.4251L56.3963 28.4307Z" fill="#1D1D1B"/>
<path d="M58.3591 34.1788H57.5818V27.9353H58.3591V34.1788Z" fill="#1D1D1B"/>
<path d="M63.0565 32.5799H60.6407L60.1542 34.1788H59.3601L61.3677 27.9353H62.3575L64.3594 34.1788H63.5318L63.0565 32.5799ZM62.8608 31.9381L61.8542 28.5883L60.8364 31.9381H62.8664H62.8608Z" fill="#1D1D1B"/>
<path d="M69.6943 31.0204C69.6943 33.5764 68.1285 34.1788 66.8032 34.1788H65.3604V27.9353H66.641C68.19 27.9353 69.6943 28.4307 69.6943 31.0204ZM66.1322 28.5714V33.5539H66.8591C67.8489 33.5539 68.8499 33.1204 68.8499 31.0261C68.8499 28.9318 67.8042 28.5771 66.7976 28.5771H66.1322V28.5714Z" fill="#1D1D1B"/>
<path d="M75.9183 31.0655C75.9183 33.126 74.8726 34.2857 73.3236 34.2857C71.7746 34.2857 70.7289 33.1597 70.7289 31.0711C70.7289 28.9824 71.7913 27.8227 73.3236 27.8227C74.8558 27.8227 75.9183 28.9543 75.9183 31.0598V31.0655ZM71.5565 31.0767C71.5565 32.8895 72.2779 33.6327 73.3236 33.6327C74.3693 33.6327 75.0907 32.8895 75.0907 31.0655C75.0907 29.2414 74.414 28.4814 73.3236 28.4814C72.2331 28.4814 71.5565 29.2414 71.5565 31.0767Z" fill="#1D1D1B"/>
<path d="M80.7443 28.5433L80.3193 29.0275C79.8496 28.6446 79.419 28.4814 78.8989 28.4814C78.239 28.4814 77.7469 28.7966 77.7469 29.4046C77.7469 29.9564 78.0098 30.221 79.1226 30.5644C80.1404 30.874 80.9456 31.2738 80.9456 32.4448C80.9456 33.5313 80.1348 34.2857 78.7759 34.2857C77.8923 34.2857 77.2101 33.9873 76.6956 33.4863L77.1262 32.9965C77.5959 33.3849 78.0825 33.6327 78.7647 33.6327C79.5196 33.6327 80.1348 33.2442 80.1348 32.4729C80.1348 31.8311 79.8272 31.5496 78.7647 31.2231C77.5456 30.8515 76.9473 30.3899 76.9473 29.4384C76.9473 28.487 77.7413 27.8339 78.8654 27.8339C79.7098 27.8339 80.241 28.0873 80.7499 28.5489L80.7443 28.5433Z" fill="#1D1D1B"/>
</g>
<defs>
<clipPath id="clip0_52_808">
<rect width="84.1667" height="40" fill="white"/>
</clipPath>
</defs>
</svg>
